<svg xmlns="http://www.w3.org/2000/svg" viewBox="0 0 512 512" role="img" aria-label="Brain app icon">
  <defs>
    <linearGradient id="brain-bg" x1="0%" y1="0%" x2="100%" y2="100%">
      <stop offset="0%" stop-color="#0f172a"/>
      <stop offset="100%" stop-color="#312e81"/>
    </linearGradient>
    <linearGradient id="brain-body" x1="0%" y1="0%" x2="100%" y2="0%">
      <stop offset="0%" stop-color="#fbcfe8"/>
      <stop offset="100%" stop-color="#f472b6"/>
    </linearGradient>
    <linearGradient id="brain-shadow" x1="0%" y1="0%" x2="0%" y2="100%">
      <stop offset="0%" stop-color="#ec4899" stop-opacity="0.7"/>
      <stop offset="100%" stop-color="#be185d" stop-opacity="0.85"/>
    </linearGradient>
  </defs>
  <rect width="512" height="512" rx="120" ry="120" fill="url(#brain-bg)"/>
  <g transform="translate(64 72)">
    <path d="M188 80c-14-32-53-47-86-32-26 12-40 39-36 65-26 21-34 60-18 91-22 31-16 74 14 98 18 15 41 20 62 16 14 31 53 46 86 31 25-11 38-36 36-61h6c16 0 32-5 46-14 34-22 43-68 22-102 24-27 22-70-7-95-18-16-41-22-62-17-12-29-46-45-77-35-15 5-27 15-36 28z" fill="url(#brain-body)"/>
    <path d="M140 156c-18 0-34 9-44 23-12 18-10 42 3 58 6 7 3 18-5 22-8 4-18 2-24-5-22-27-22-68 2-95 8-9 17-16 28-20-5-29 10-59 37-72 28-13 62-3 79 23 5 8 1 19-8 22-9 4-19 0-23-9-7-12-24-17-36-11-14 6-22 23-18 38 2 10-5 19-15 19z" fill="url(#brain-shadow)" opacity="0.45"/>
    <path d="M196 250c18 0 34-9 44-23 12-18 10-42-3-58-6-7-3-18 5-22 8-4 18-2 24 5 22 27 22 68-2 95-8 9-17 16-28 20 5 29-10 59-37 72-28 13-62 3-79-23-5-8-1-19 8-22 9-4 19 0 23 9 7 12 24 17 36 11 14-6 22-23 18-38-2-10 5-19 15-19z" fill="url(#brain-shadow)" opacity="0.45"/>
    <path d="M214 118c-12 0-22-10-22-22s10-22 22-22 22 10 22 22-10 22-22 22zm-56 160c0 12-10 22-22 22s-22-10-22-22 10-22 22-22 22 10 22 22zm98-34c0 12-10 22-22 22s-22-10-22-22 10-22 22-22 22 10 22 22z" fill="#fdf2f8"/>
  </g>
</svg>
